<svg xmlns="http://www.w3.org/2000/svg" width="266.667" height="266.667" preserveAspectRatio="xMidYMid meet" version="1.0" viewBox="0 0 200 200"><metadata>Created by potrace 1.11, written by Peter Selinger 2001-2013</metadata><g fill="#000" stroke="none"><path d="M855 1990 c-389 -61 -709 -352 -813 -739 -22 -84 -25 -116 -25 -251 0 -135 3 -167 25 -251 96 -357 363 -622 726 -721 102 -28 352 -31 454 -5 370 92 648 363 745 725 23 85 26 117 26 252 0 135 -3 167 -25 250 -15 52 -39 124 -55 160 l-30 65 -6 -155 c-3 -85 -12 -210 -18 -277 l-12 -123 -48 0 c-44 0 -48 2 -53 28 -15 71 -27 260 -33 500 l-6 263 -46 41 c-114 100 -265 179 -419 219 -89 23 -294 33 -387 19z m135 -248 c0 -5 -11 -69 -25 -143 -14 -74 -25 -142 -25 -151 0 -16 13 -18 129 -18 115 0 130 2 135 18 2 9 12 58 21 107 8 50 20 114 26 143 l10 52 64 0 c35 0 66 -3 68 -7 3 -7 -15 -118 -47 -285 l-5 -27 72 -3 72 -3 3 -62 3 -62 -88 -3 -88 -3 -27 -145 c-15 -80 -27 -148 -27 -152 -1 -4 50 -9 112 -10 l112 -3 3 -62 3 -62 -127 -3 -128 -3 -22 -125 c-13 -69 -26 -140 -29 -158 l-6 -32 -71 0 c-68 0 -70 1 -65 23 3 12 15 76 27 142 12 66 23 128 26 138 5 16 -6 17 -130 17 l-135 0 -10 -52 c-6 -29 -19 -100 -29 -158 l-18 -105 -70 -3 -71 -3 23 128 c13 70 26 143 29 161 l6 32 -71 0 -70 0 0 65 0 65 83 0 82 0 24 133 c12 72 25 142 28 155 5 22 4 22 -106 22 l-111 0 0 65 0 65 123 0 123 0 27 151 c15 84 30 156 33 160 7 12 134 12 134 1z m859 -1007 c98 -50 61 -215 -49 -215 -23 0 -50 5 -61 10 -28 15 -49 63 -49 111 0 33 6 47 34 75 38 38 77 44 125 19z" transform="translate(0.000000,200.000000) scale(0.100000,-0.100000)"/><path d="M904 1263 c-3 -21 -16 -91 -29 -155 l-22 -118 133 0 c118 0 133 2 138 18 3 9 14 71 26 137 12 66 23 128 26 138 5 16 -6 17 -130 17 l-135 0 -7 -37z" transform="translate(0.000000,200.000000) scale(0.100000,-0.100000)"/></g></svg>